<svg width="141" height="28" viewBox="0 0 141 28" fill="none" xmlns="http://www.w3.org/2000/svg">
<g id="Group 8">
<path id="polygon3009" d="M22.7949 0.0212402L0.576904 0.0212402V5.42524L2.6069 13.4612L8.9769 13.8252L14.3809 8.42124L25.0769 6.12524L22.7949 0.0212402Z" fill="white"/>
<path id="polygon3005" d="M0.576904 5.42517L0.576904 27.6432H5.9809L15.0249 26.8872L14.3949 19.2292L0.576904 5.42517V5.42517Z" fill="white"/>
<path id="polygon3007" d="M5.97729 27.6427H28.1953V22.2387L25.8293 15.0427L19.7813 13.8247L5.97729 27.6427Z" fill="white"/>
<path id="path3011" d="M134.458 10.9834L129.572 15.4215L134.458 19.8876V22.4636H134.304L127.052 15.8835V22.1416H124.952V3.21322H127.052V15.0435L134.262 8.47734H134.458V10.9834V10.9834ZM39.6921 22.1416H50.4161V20.0276H41.8761V3.82923H39.6921V22.1416ZM57.8361 8.49134C54.5461 8.49134 51.5501 11.1654 51.5501 15.4775C51.5501 19.6636 54.2941 22.4356 58.2421 22.4356C60.0061 22.4356 61.6301 21.9876 63.1001 20.9236V18.6696C61.5601 19.9576 59.8521 20.5036 58.3121 20.5036C55.9461 20.5036 53.8461 19.0336 53.6501 16.2895H63.6461C63.6741 16.0235 63.7301 15.4355 63.7301 15.2115C63.7301 10.8014 61.0701 8.49134 57.8361 8.49134V8.49134ZM57.8501 10.4094C59.7121 10.4094 61.6021 11.6134 61.6721 14.4555H53.6361C53.7621 12.2574 55.4561 10.4094 57.8501 10.4094ZM93.1161 8.49134C91.3381 8.49134 90.0501 9.42936 89.2801 10.8154C88.6361 9.33136 87.4461 8.49134 85.5421 8.49134C83.8761 8.49134 82.6441 9.45736 81.9721 10.7454H81.9161L81.6641 8.75734H79.9981V22.1276H82.1261V13.6855C82.1261 12.0474 83.1481 10.5214 84.9961 10.5214C86.8021 10.5214 87.6001 11.5854 87.6001 13.5174V22.1416H89.7281V13.5455C89.7281 11.9914 90.7641 10.5214 92.5841 10.5214C94.4181 10.5214 95.2021 11.5854 95.2021 13.5174V22.1416H97.3301V13.2234C97.3441 10.4234 96.0421 8.49134 93.1161 8.49134V8.49134ZM105.954 8.49134C102.762 8.49134 99.7801 11.1934 99.7801 15.4775C99.7801 19.7056 102.748 22.4356 105.954 22.4356C107.956 22.4356 109.846 21.4976 110.854 19.6356H110.882L111.134 22.1416H112.87V8.77134H111.134L110.882 11.2774H110.854C109.846 9.44336 107.956 8.49134 105.954 8.49134ZM106.346 10.4794C108.866 10.4794 110.784 12.5094 110.784 15.4635C110.784 18.4036 108.88 20.4476 106.346 20.4476C103.868 20.4476 101.908 18.4456 101.908 15.4915C101.908 12.4814 103.868 10.4794 106.346 10.4794V10.4794ZM121.942 8.61734C120.78 8.61734 119.016 9.16335 118.106 10.8994H118.078L117.854 8.77134H116.146V22.1416H118.274V14.4415C118.274 11.3474 120.78 10.3814 122.838 10.8014V8.68734C122.558 8.64534 122.292 8.61734 121.942 8.61734V8.61734ZM77.2681 8.46333H77.1001L71.5141 14.0355L65.9421 8.46333H65.7741V11.1654L70.0721 15.4635L65.7741 19.7336V22.4636H65.9421L71.4861 16.8635L77.1001 22.4636H77.2681V19.7196L72.9281 15.4215L77.2681 11.0534V8.46333V8.46333ZM134.458 3.50723V3.21322H136.782V3.50723H135.802V5.83128H135.452V3.49323C135.438 3.50723 134.458 3.50723 134.458 3.50723V3.50723ZM137.958 3.21322L138.966 5.42527L139.974 3.21322H140.45V5.83128H140.114V3.63323L139.106 5.83128H138.812L137.818 3.63323V5.83128H137.482V3.19922H137.958V3.21322Z" fill="white"/>
<path id="polygon3003" d="M28.2032 22.2392V0.0212402L22.7992 0.0212402L14.3992 8.42124L28.2032 22.2392Z" fill="white"/>
</g>
</svg>
