<svg width="161" height="35" viewBox="0 0 161 35" fill="none" xmlns="http://www.w3.org/2000/svg">
<g id="Group 7">
<path id="Vector" d="M161.005 16.174V13.3426H157.489V8.94078L157.371 8.97722L154.068 9.9877L154.003 10.0075V13.3428H148.79V11.4847C148.79 10.6196 148.984 9.95748 149.365 9.51594C149.744 9.0797 150.285 8.85792 150.976 8.85792C151.472 8.85792 151.987 8.97489 152.504 9.20555L152.634 9.26348V6.28159L152.573 6.25916C152.09 6.08566 151.434 5.99829 150.62 5.99829C149.594 5.99829 148.662 6.22147 147.85 6.66379C147.037 7.10673 146.397 7.73905 145.949 8.54301C145.502 9.34603 145.276 10.2735 145.276 11.2998V13.3426H142.827V16.174H145.276V28.1024H148.79V16.174H154.003V23.7543C154.003 26.8762 155.476 28.4583 158.38 28.4583C158.857 28.4583 159.359 28.4023 159.872 28.2929C160.394 28.1804 160.75 28.0681 160.959 27.9482L161.005 27.9208V25.0632L160.862 25.1577C160.672 25.2848 160.434 25.3887 160.156 25.4659C159.876 25.5446 159.642 25.584 159.461 25.584C158.781 25.584 158.278 25.4007 157.965 25.0389C157.649 24.6738 157.489 24.0354 157.489 23.1424V16.174H161.005ZM134.979 25.5845C133.703 25.5845 132.697 25.1614 131.988 24.3282C131.275 23.4908 130.914 22.2968 130.914 20.7799C130.914 19.2148 131.275 17.9899 131.989 17.1376C132.698 16.291 133.694 15.8613 134.95 15.8613C136.169 15.8613 137.139 16.2717 137.834 17.0817C138.532 17.896 138.887 19.1111 138.887 20.6944C138.887 22.2971 138.553 23.5283 137.896 24.3519C137.243 25.1692 136.262 25.5845 134.979 25.5845V25.5845ZM135.135 12.987C132.701 12.987 130.768 13.7002 129.39 15.1067C128.012 16.5134 127.314 18.4601 127.314 20.8931C127.314 23.204 127.995 25.0629 129.34 26.4171C130.685 27.7717 132.515 28.4579 134.779 28.4579C137.138 28.4579 139.033 27.7348 140.41 26.3088C141.788 24.8844 142.486 22.9561 142.486 20.5799C142.486 18.2328 141.831 16.3602 140.539 15.015C139.246 13.6692 137.427 12.987 135.135 12.987V12.987ZM121.647 12.987C119.991 12.987 118.622 13.4105 117.576 14.2454C116.523 15.0854 115.989 16.187 115.989 17.52C115.989 18.2129 116.105 18.8284 116.332 19.3505C116.56 19.8742 116.913 20.3354 117.382 20.7224C117.847 21.1063 118.566 21.5085 119.518 21.9176C120.319 22.247 120.916 22.5256 121.295 22.7452C121.666 22.9605 121.929 23.1768 122.077 23.3875C122.222 23.5937 122.295 23.8759 122.295 24.2242C122.295 25.2158 121.552 25.6983 120.024 25.6983C119.457 25.6983 118.811 25.5799 118.103 25.3466C117.4 25.1169 116.736 24.7804 116.135 24.3489L115.989 24.2443V27.6281L116.043 27.6531C116.54 27.8826 117.167 28.0762 117.906 28.2285C118.644 28.381 119.314 28.4586 119.896 28.4586C121.693 28.4586 123.139 28.0331 124.195 27.1931C125.257 26.3474 125.796 25.2199 125.796 23.8407C125.796 22.8458 125.506 21.9927 124.934 21.3046C124.367 20.6221 123.382 19.9955 122.009 19.4417C120.915 19.0025 120.214 18.6379 119.924 18.358C119.646 18.0877 119.504 17.7053 119.504 17.2211C119.504 16.7919 119.679 16.448 120.037 16.1695C120.399 15.8896 120.902 15.7473 121.533 15.7473C122.119 15.7473 122.718 15.8398 123.314 16.0211C123.909 16.2024 124.432 16.4452 124.869 16.7422L125.012 16.8403V13.6304L124.957 13.6067C124.554 13.434 124.023 13.2862 123.378 13.1663C122.736 13.0471 122.154 12.987 121.647 12.987V12.987ZM106.827 25.5845C105.552 25.5845 104.545 25.1614 103.837 24.3282C103.123 23.4908 102.763 22.2971 102.763 20.7799C102.763 19.2148 103.124 17.9899 103.838 17.1376C104.546 16.291 105.542 15.8613 106.799 15.8613C108.017 15.8613 108.987 16.2717 109.682 17.0817C110.381 17.896 110.735 19.1111 110.735 20.6944C110.735 22.2971 110.402 23.5283 109.744 24.3519C109.092 25.1692 108.111 25.5845 106.827 25.5845V25.5845ZM106.984 12.987C104.549 12.987 102.616 13.7002 101.238 15.1067C99.8609 16.5134 99.1621 18.4601 99.1621 20.8931C99.1621 23.205 99.8443 25.0629 101.189 26.4171C102.534 27.7717 104.364 28.4579 106.628 28.4579C108.986 28.4579 110.882 27.7348 112.259 26.3088C113.637 24.8844 114.335 22.9561 114.335 20.5799C114.335 18.2328 113.68 16.3602 112.387 15.015C111.094 13.6692 109.276 12.987 106.984 12.987V12.987ZM93.827 15.8987V13.3426H90.3551V28.1021H93.827V20.552C93.827 19.2682 94.118 18.2135 94.6924 17.4169C95.2595 16.6297 96.0152 16.2309 96.9378 16.2309C97.2505 16.2309 97.6016 16.2824 97.9817 16.3844C98.358 16.4858 98.6306 16.5959 98.7913 16.7118L98.9372 16.8176V13.3174L98.881 13.2932C98.5577 13.1559 98.1003 13.0866 97.5215 13.0866C96.649 13.0866 95.8683 13.3669 95.1995 13.9189C94.6125 14.404 94.1883 15.0692 93.8639 15.8987H93.827ZM84.1377 12.987C82.5449 12.987 81.1242 13.3286 79.9158 14.0019C78.7048 14.6767 77.7684 15.6401 77.1312 16.8652C76.4969 18.0874 76.1748 19.5149 76.1748 21.1069C76.1748 22.5015 76.4871 23.7812 77.1043 24.9091C77.7218 26.0389 78.5958 26.9228 79.7022 27.5358C80.8071 28.148 82.084 28.4584 83.4979 28.4584C85.1478 28.4584 86.5565 28.1285 87.686 27.478L87.7316 27.4518V24.2711L87.5857 24.3776C87.0741 24.7503 86.5023 25.0478 85.8871 25.2621C85.2735 25.4762 84.7141 25.5845 84.2235 25.5845C82.8612 25.5845 81.7675 25.1582 80.9737 24.3178C80.1782 23.4763 79.7748 22.2947 79.7748 20.8078C79.7748 19.3115 80.1955 18.0995 81.0245 17.2052C81.851 16.3136 82.9467 15.8613 84.2808 15.8613C85.4219 15.8613 86.5339 16.2477 87.586 17.0109L87.7316 17.1166V13.7651L87.6846 13.7387C87.2887 13.517 86.7487 13.334 86.0784 13.1953C85.4109 13.0568 84.758 12.987 84.1377 12.987V12.987ZM73.7836 13.3428H70.3118V28.1021H73.7836V13.3428V13.3428ZM72.0832 7.05518C71.5118 7.05518 71.0134 7.2497 70.604 7.63517C70.1928 8.02173 69.9843 8.50843 69.9843 9.08282C69.9843 9.64817 70.1903 10.126 70.5976 10.5023C71.0022 10.8775 71.5022 11.0676 72.0834 11.0676C72.6645 11.0676 73.1663 10.8775 73.5757 10.5029C73.9878 10.126 74.1968 9.64833 74.1968 9.08282C74.1968 8.52852 73.9934 8.0468 73.5927 7.65074C73.1923 7.25546 72.6842 7.05518 72.0832 7.05518ZM63.4208 12.2538V28.1021H66.9639V7.50699H62.06L55.8268 22.8044L49.7779 7.50699H44.6743V28.1019H48.004V12.2522H48.1183L54.5058 28.1021H57.0186L63.3064 12.2538H63.4208V12.2538Z" fill="white"/>
<path id="Vector_2" d="M16.3411 16.9576H0.00854492L0.00854492 0.625L16.3411 0.625V16.9576Z" fill="white"/>
<path id="Vector_3" d="M34.3716 16.9576H18.0393V0.625L34.3716 0.625V16.9576Z" fill="white"/>
<path id="Vector_4" d="M16.3407 34.9969H0.00854492L0.00854492 18.6646H16.3407V34.9969Z" fill="white"/>
<path id="Vector_5" d="M34.3716 34.9969H18.0393V18.6646H34.3716V34.9969Z" fill="white"/>
</g>
</svg>
