<svg width="141" height="71" viewBox="0 0 141 71" fill="none" xmlns="http://www.w3.org/2000/svg">
    <g id="Company Logo">
    <path id="Vector" d="M19.759 52.2899C17.6529 52.6598 15.5099 52.7706 13.293 53.0659L6.53114 33.2614V53.9159C4.42513 54.1375 2.50382 54.4331 0.508545 54.7287L0.508545 16.8928H6.12495L13.8102 38.3606V16.8928H19.759V52.2899ZM31.398 30.7487C33.689 30.7487 37.1991 30.6379 39.3051 30.6379V36.5496C36.6816 36.5496 33.615 36.5496 31.398 36.6605V45.4545C34.8713 45.2329 38.3445 44.937 41.8545 44.8262V50.516L25.486 51.8095V16.8928H41.8545V22.8047H31.398V30.7487ZM63.8391 22.8048H57.7057V49.9993C55.7104 49.9993 53.7151 49.9993 51.7941 50.073V22.8048H45.6606V16.8928H63.8394L63.8391 22.8048ZM73.4458 30.3424H81.5378V36.2542H73.4458V49.6668H67.6444V16.8928H84.1611V22.8047H73.4458V30.3424ZM93.7678 44.4938C97.1303 44.5675 100.529 44.8266 103.818 45.011V50.849C98.5344 50.5163 93.2506 50.1842 87.8561 50.073V16.8928H93.7678V44.4938ZM108.806 51.2555C110.69 51.3665 112.686 51.4774 114.607 51.6988V16.8928H108.806V51.2555ZM140.509 16.8928L133.008 34.8871L140.509 54.7287C138.291 54.4331 136.074 54.0267 133.857 53.6571L129.609 42.7204L125.286 52.7706C123.142 52.4008 121.073 52.2899 118.931 51.9943L126.542 34.6652L119.669 16.8928H126.024L129.904 26.8322L134.042 16.8928H140.509Z" fill="white"/>
    </g>
</svg>
