<svg width="141" height="71" viewBox="0 0 141 71" fill="none" xmlns="http://www.w3.org/2000/svg">
<g id="Company Logo">
<path id="Vector" d="M137.234 20.3557C138.307 20.2991 139.381 20.2991 140.455 20.3274C137.234 27.0522 134.126 33.8335 130.989 40.5866H128.361C126.92 37.1959 125.225 33.89 123.728 30.4994C124.773 30.4711 125.818 30.4711 126.864 30.4994C127.768 32.5903 128.842 34.5964 129.661 36.6873C132.176 31.234 134.775 25.809 137.234 20.3557Z" fill="white"/>
<path id="Vector_2" d="M56.3386 23.2378C58.4012 23.266 60.4921 23.266 62.5548 23.2378C62.5265 25.0744 62.5265 26.9393 62.5548 28.7759C60.4921 28.7476 58.4012 28.7759 56.3103 28.7476C56.3668 26.911 56.3103 25.0744 56.3386 23.2378ZM25.0597 31.1493C29.2981 28.7476 35.4578 29.567 38.3116 33.7206C40.0634 36.1788 40.572 39.2869 40.5437 42.2254C35.6838 42.2537 30.8239 42.2254 25.9639 42.2537C26.19 43.7512 26.8398 45.3335 28.2244 46.1247C30.2022 47.2832 33.3103 46.9441 34.2993 44.6554C36.3054 44.5989 38.2833 44.5989 40.2894 44.6554C39.6678 46.9441 38.0008 48.8937 35.9098 49.9674C33.6494 51.2107 30.9369 51.4367 28.4221 51.0129C25.7661 50.589 23.3079 49.0915 21.8104 46.8593C20.1716 44.4859 19.7477 41.4625 20.115 38.6653C20.4824 35.5854 22.319 32.6751 25.0597 31.1493ZM28.3656 34.6812C26.9811 35.3311 26.303 36.8286 25.9922 38.2697H34.2993C34.1298 37.1677 33.7342 36.0092 32.8865 35.2463C31.6998 34.0879 29.8067 34.0596 28.3656 34.6812ZM90.2169 30.0756C93.551 29.4822 97.2525 30.1886 99.8237 32.5056C104.203 36.4048 104.401 43.949 100.332 48.1308C97.1112 51.4932 91.7144 52.1148 87.5891 50.2217C84.3962 48.7807 82.2206 45.5313 81.8532 42.0842C81.712 40.078 81.7967 38.0154 82.6161 36.1505C83.8594 32.9577 86.8827 30.6407 90.2169 30.0756ZM90.9232 34.6812C89.1714 35.3029 88.352 37.196 88.0977 38.9195C87.8999 41.067 87.9282 43.4969 89.3127 45.277C90.8102 47.2266 94.1161 47.1701 95.6136 45.2488C96.8569 43.6947 97.0547 41.5756 96.9134 39.6542C96.8286 37.9589 96.2353 36.1505 94.8225 35.1051C93.6923 34.3422 92.1947 34.2292 90.9232 34.6812ZM112.397 31.2341C114.46 29.6235 117.399 29.454 119.772 30.4147C121.467 31.1493 122.739 32.6468 123.332 34.3704C124.01 36.1505 123.813 38.0719 123.813 39.9367C123.813 43.4969 123.784 47.0571 123.841 50.589C121.778 50.6173 119.716 50.589 117.625 50.6173V38.411C117.625 37.3655 117.229 36.2353 116.353 35.5854C115.025 34.6812 113.104 34.8508 111.974 35.981C111.069 36.8852 110.674 38.1849 110.702 39.4281V50.6173C108.668 50.589 106.605 50.6173 104.571 50.589C104.571 43.8642 104.599 37.1395 104.571 30.4147C106.577 30.4429 108.555 30.3864 110.561 30.4429C110.533 31.3754 110.533 32.3078 110.504 33.2402C111.126 32.5621 111.634 31.7992 112.397 31.2341ZM0.562256 30.4712H7.0045C8.30425 34.7943 9.68877 39.1173 10.9038 43.4687C12.4013 39.2021 13.5315 34.7943 14.9443 30.4712C17.0069 30.4429 19.0978 30.4712 21.1605 30.4429C18.787 37.1677 16.4701 43.8925 14.1249 50.6173C11.9775 50.6173 9.83005 50.589 7.68263 50.6455C5.22441 43.949 3.04874 37.1395 0.562256 30.4712ZM41.9565 30.4429H47.8902C47.8619 31.5731 47.8902 32.7034 47.8337 33.8336C48.3423 33.2685 48.7096 32.5621 49.2464 32.0252C50.5744 30.5559 52.7501 29.9626 54.6715 30.4712C54.6432 32.2513 54.6432 34.0314 54.6715 35.7832C53.1457 35.6137 51.4504 35.6702 50.1506 36.6026C48.7661 37.5633 48.1445 39.3434 48.1727 40.9822C48.1445 44.2033 48.1727 47.3962 48.1727 50.6173C46.1101 50.6173 44.0192 50.589 41.9565 50.6455C41.9848 43.8925 41.9848 37.1677 41.9565 30.4429ZM56.3386 30.4712C58.4295 30.4429 60.4921 30.4712 62.583 30.4429C62.5548 37.1677 62.583 43.8925 62.583 50.6173C60.5204 50.589 58.4295 50.6173 56.3386 50.6173V30.4712ZM64.2501 30.4429C69.8729 30.4712 75.4958 30.4429 81.0903 30.4712C81.0338 32.0252 81.0903 33.551 81.0621 35.1051C80.8643 35.5006 80.5252 35.7832 80.2709 36.1223C77.3889 39.3151 74.5633 42.5928 71.6248 45.7574C74.9306 45.8139 78.2365 45.7574 81.5424 45.7856V50.6455C75.7783 50.6173 70.0142 50.6173 64.2501 50.6455V45.9551C67.2734 42.5645 70.2685 39.2021 73.3201 35.8397C73.4049 35.6702 73.7722 35.5006 73.5744 35.2746C70.4663 35.3594 67.3582 35.2746 64.2501 35.3311V30.4429Z" fill="white"/>
</g>
</svg>
