<svg width="141" height="47" viewBox="0 0 141 47" fill="none" xmlns="http://www.w3.org/2000/svg">
<g id="Group 5">
<path id="Vector" d="M17.7501 0.967041H18.9951C23.3172 1.061 27.5689 2.79926 30.6226 5.87645C29.4951 7.02746 28.3441 8.13149 27.24 9.2825C25.5253 7.73216 23.4582 6.53417 21.2031 6.11135C17.8676 5.40665 14.2736 6.04088 11.4783 7.94357C8.4246 9.94022 6.35749 13.3228 5.91118 16.9402C5.41789 20.5107 6.42796 24.2691 8.75346 27.0409C10.985 29.7423 14.391 31.4336 17.9145 31.551C21.2031 31.7389 24.6327 30.7289 27.0286 28.4268C28.9078 26.806 29.777 24.3396 30.0588 21.9436C26.1595 21.9436 22.2602 21.9671 18.3608 21.9436V17.1047H34.7803C35.6259 22.296 34.4045 28.145 30.4582 31.8564C27.8273 34.4873 24.1863 36.0376 20.4749 36.343C16.881 36.6953 13.1696 36.0141 9.97494 34.2759C6.14608 32.2322 3.09239 28.7792 1.58903 24.7154C0.179637 20.9805 0.156147 16.7523 1.47158 12.9939C2.66957 9.56438 4.97158 6.53417 7.93132 4.42007C10.7736 2.32946 14.2266 1.17845 17.7501 0.967041Z" fill="white"/>
<path id="Vector_2" d="M111.945 2.18835H116.972V35.732C115.304 35.732 113.613 35.7555 111.945 35.7085C111.968 24.5508 111.945 13.3696 111.945 2.18835V2.18835Z" fill="white"/>
<path id="Vector_3" d="M45.9615 13.8162C49.0622 13.2289 52.4212 13.8866 54.9816 15.7423C57.3071 17.3866 58.928 19.9705 59.4212 22.7893C60.0555 26.0544 59.2568 29.6249 57.1427 32.2088C54.8642 35.0981 51.1293 36.6484 47.4883 36.4135C44.1528 36.2256 40.9111 34.5578 38.938 31.833C36.7064 28.8262 36.1662 24.692 37.3876 21.1685C38.6091 17.3866 42.0622 14.4974 45.9615 13.8162V13.8162ZM46.6662 18.2793C45.3977 18.6081 44.2232 19.3363 43.3776 20.3699C41.0991 23.0947 41.24 27.5343 43.7534 30.0712C45.1863 31.5276 47.3474 32.2088 49.344 31.8095C51.1997 31.4806 52.8206 30.2356 53.7132 28.5913C55.2635 25.796 54.8172 21.9437 52.4447 19.7591C50.9179 18.3497 48.6863 17.7625 46.6662 18.2793Z" fill="white"/>
<path id="Vector_4" d="M70.8608 13.8161C74.4078 13.1349 78.2836 14.1214 80.938 16.6114C85.2601 20.4872 85.7299 27.7456 82.042 32.2087C79.8105 35.0274 76.193 36.5778 72.6226 36.4133C69.2165 36.3194 65.8575 34.6281 63.8373 31.8328C61.5588 28.7556 61.0655 24.5275 62.3575 20.9335C63.6494 17.2691 67.032 14.4738 70.8608 13.8161V13.8161ZM71.5655 18.2791C70.2971 18.608 69.1226 19.3362 68.2769 20.3463C66.0219 23.0241 66.1159 27.3932 68.5353 29.9536C69.9682 31.4805 72.1997 32.2321 74.2669 31.8093C76.0991 31.457 77.7434 30.2355 78.636 28.5912C80.1628 25.7724 79.7165 21.9201 77.3205 19.7355C75.7937 18.3261 73.5622 17.7624 71.5655 18.2791Z" fill="white"/>
<path id="Vector_5" d="M91.9782 15.1782C94.6795 13.487 98.2735 13.0172 101.186 14.4735C102.102 14.8729 102.854 15.5541 103.582 16.2353C103.606 15.601 103.582 14.9433 103.606 14.2856C105.18 14.3091 106.753 14.2856 108.351 14.3091V35.0272C108.327 38.1514 107.529 41.4634 105.273 43.7419C102.807 46.2554 99.0252 47.0305 95.6191 46.5138C91.9782 45.9735 88.807 43.3191 87.3976 39.9601C88.807 39.2789 90.2869 38.7386 91.7433 38.1044C92.5654 40.0305 94.2332 41.6748 96.3238 42.0507C98.4144 42.4265 100.834 41.9097 102.196 40.1715C103.653 38.3862 103.653 35.9433 103.582 33.7587C102.502 34.8158 101.257 35.7554 99.7534 36.1077C96.4882 37.0238 92.8943 35.8963 90.3809 33.6883C87.8439 31.4802 86.3406 28.0742 86.4815 24.6916C86.552 20.8628 88.7131 17.1749 91.9782 15.1782V15.1782ZM96.8406 18.1849C95.4077 18.4198 94.0688 19.2185 93.1527 20.3225C90.9446 22.9534 90.9446 27.1581 93.1762 29.742C94.4446 31.2688 96.4882 32.1144 98.4614 31.903C100.317 31.7151 102.032 30.5406 102.948 28.9198C104.498 26.1715 104.24 22.4366 102.149 20.0406C100.857 18.5608 98.7903 17.8326 96.8406 18.1849V18.1849Z" fill="white"/>
<path id="Vector_6" d="M123.009 16.3762C125.827 13.7454 130.173 12.8527 133.79 14.2386C137.22 15.5306 139.405 18.7957 140.509 22.1548C135.411 24.2689 130.337 26.3595 125.24 28.4736C125.945 29.8125 127.025 31.034 128.482 31.5272C130.525 32.2554 132.968 31.997 134.683 30.6346C135.364 30.1178 135.905 29.4366 136.421 28.7789C137.713 29.648 139.005 30.4937 140.297 31.3628C138.465 34.1111 135.388 36.0373 132.076 36.3427C128.411 36.789 124.512 35.3796 122.139 32.5138C118.24 28.0038 118.616 20.44 123.009 16.3762V16.3762ZM125.522 20.7219C124.723 21.8729 124.394 23.2823 124.418 24.6682C127.824 23.2588 131.23 21.8494 134.636 20.4165C134.072 19.1011 132.71 18.3024 131.324 18.091C129.092 17.6917 126.767 18.8897 125.522 20.7219V20.7219Z" fill="white"/>
</g>
</svg>
