<svg width="141" height="71" viewBox="0 0 141 71" fill="none" xmlns="http://www.w3.org/2000/svg">
<path d="M43.2938 32.3178C44.8955 32.3178 46.1939 31.0189 46.1939 29.4169C46.1939 27.8146 44.8955 26.516 43.2938 26.516C41.6921 26.516 40.3937 27.8146 40.3937 29.4169C40.3937 31.0189 41.6921 32.3178 43.2938 32.3178ZM139.004 42.2291C138.563 41.9189 138.222 41.8675 137.94 42.4699C133.069 53.0195 124.861 47.7551 125.676 48.2184C127.497 47.3856 132.285 43.5452 131.562 38.2426C131.122 35.0019 128.341 33.5645 125.388 34.0792C120.235 34.9776 118.339 40.5361 119.304 45.4572C119.473 46.3024 119.775 46.9994 120.076 47.6821C114.253 52.4179 111.94 43.4427 111.678 42.3702C111.667 42.3128 116.174 38.5561 117.428 29.6042C118.742 20.222 115.749 18.5137 112.688 18.567C107.025 18.6656 105.494 30.4985 107.55 40.3604C107.378 40.4052 106.577 40.8491 105.289 40.8988C104.362 37.9832 100.403 35.4275 99.367 36.4123C96.7736 38.8759 99.996 43.6923 102.263 44.07C100.901 52.4589 92.3834 50.3813 93.969 39.8714C96.7428 34.7204 98.8523 27.0613 98.476 22.4376C98.3426 20.8006 97.1323 18.6074 94.3951 18.7162C89.1304 18.9245 88.5581 30.7606 89.1752 39.1612C89.1446 38.9543 88.8516 40.1819 86.6942 40.7922C86.1839 37.9597 81.623 35.1165 80.5494 36.4834C78.5396 39.0418 82.0227 43.6035 83.6725 43.9216C82.3105 52.3102 73.7929 50.2326 75.3785 39.7227C78.1523 34.572 80.2616 26.9129 79.8852 22.2892C79.7518 20.6519 78.5418 18.4587 75.8043 18.5672C70.5396 18.7758 69.9673 30.6119 70.5845 39.0126C70.5536 38.8024 70.2537 40.0704 68.0083 40.6706C67.9331 36.9956 63.3556 35.3105 62.256 36.4831C60.2962 38.5733 62.7048 42.8619 64.933 43.9216C63.571 52.3102 55.0534 50.2326 56.639 39.7227C59.4128 34.572 61.5224 26.9129 61.1457 22.2892C61.0126 20.6519 59.8023 18.4587 57.0649 18.5672C51.8005 18.7758 51.3768 31.207 51.994 39.6073C50.26 47.0368 44.4448 56.3148 45.2003 37.729C45.2749 36.4252 45.3564 35.9302 44.7064 35.442C44.2193 35.0626 43.1117 35.2452 42.5063 35.2602C41.7705 35.2898 41.586 35.7203 41.4234 36.3711C41.0445 38.0515 40.9765 39.6806 40.9223 41.9033C40.8868 42.9431 40.8034 43.4283 40.403 44.846C40.0031 46.2635 37.7216 48.8545 36.4725 48.4212C34.7395 47.8254 35.3081 42.9332 35.6328 39.5721C35.9034 36.9158 35.0369 35.723 32.8169 35.2892C31.5172 35.0183 30.7276 35.0599 29.374 34.6332C28.094 34.2298 27.8045 31.8086 25.0745 32.6155C23.5813 33.0572 24.5412 36.221 24.1823 38.5659C22.4179 50.1009 18.7468 50.4177 17.0437 44.8143C24.7142 26.0279 19.2626 18.6216 16.0714 18.6216C12.7477 18.6216 8.94836 20.9111 10.5572 35.5595C9.77492 35.3313 9.53438 35.2083 8.67803 35.2083C3.83484 35.2083 0.535156 39.1235 0.535156 43.9533C0.535156 48.7831 3.83511 52.6986 8.6783 52.6986C11.5374 52.6986 13.5447 51.3984 15.065 49.3869C16.0569 50.8074 17.2648 52.7205 19.4736 52.6344C26.0574 52.378 27.9721 38.8729 28.1981 38.1196C28.902 38.2281 29.5678 38.4334 30.2178 38.5419C31.3007 38.7045 31.3795 39.1331 31.3549 40.2223C31.0679 49.4074 32.7628 52.6235 36.6075 52.6235C38.7496 52.6235 40.6589 50.5188 41.9741 49.0138C42.9565 51.0414 44.5219 52.5614 46.6219 52.6232C51.7105 52.7497 53.6589 44.6391 53.4812 45.7065C53.3418 46.544 55.1321 52.5775 60.3708 52.5994C66.86 52.6267 68.0663 45.4906 68.21 44.2953C68.2281 44.0575 68.236 44.0821 68.21 44.2953L68.2051 44.3677C70.2652 43.9845 71.3282 42.8799 71.3282 42.8799C71.3282 42.8799 72.9824 52.7104 79.11 52.5997C85.4732 52.4843 86.6731 46.0337 86.8306 44.7758C86.8514 44.4773 86.8637 44.5123 86.8306 44.7758C86.8297 44.7881 86.8289 44.8004 86.8281 44.8127C89.2753 43.9224 89.919 43.0289 89.919 43.0289C89.919 43.0289 91.2337 52.6639 97.7008 52.7481C103.464 52.8235 105.6 46.922 105.612 44.4519C106.584 44.4623 108.382 43.8752 108.34 43.8418C108.34 43.8418 110.451 52.2659 116.346 52.6986C119.114 52.9017 121.19 51.1412 122.373 50.3381C125.155 52.5907 134.417 55.4678 140.265 45.5526C141.091 44.1296 139.316 42.4486 139.004 42.2291ZM8.4446 49.4279C5.61888 49.4279 3.80696 46.8151 3.80696 43.9979C3.80696 41.1809 5.47019 38.5681 8.29591 38.5681C9.56746 38.5681 10.2748 38.7081 11.2651 39.5693C11.4447 40.277 11.9537 41.9093 12.2013 42.6506C12.5331 43.6425 12.9278 44.4869 13.3258 45.4058C12.7573 47.7628 10.8934 49.4279 8.4446 49.4279ZM15.3304 39.6522C15.2129 39.4649 15.2375 39.58 15.106 39.4032C14.588 37.9941 13.5898 34.8491 13.4742 31.277C13.3436 27.236 14.0171 22.4994 16.0025 22.4994C17.3479 22.4994 18.7777 32.0989 15.3301 39.6522H15.3304ZM55.1171 35.4417C54.7984 33.0438 54.7817 22.3537 57.348 22.6481C58.765 23.2221 56.4496 33.3095 55.1171 35.4417ZM73.8566 35.4417C73.5378 33.0438 73.5212 22.3537 76.0875 22.6481C77.5045 23.2221 75.189 33.3095 73.8566 35.4417ZM92.4473 35.5907C92.1283 33.1925 92.1119 22.5024 94.678 22.7968C96.0949 23.3708 93.7795 33.4584 92.4473 35.5907ZM112.971 22.0224C115.318 21.7792 115.221 32.0253 110.511 38.494C109.904 36.156 108.973 22.8252 112.971 22.0222V22.0224ZM122.833 44.07C122.08 40.2633 124.027 37.7631 126.034 37.489C126.736 37.3769 127.753 37.8315 127.956 38.6813C128.289 40.2827 127.907 42.6583 123.414 45.6723C123.421 45.698 123.001 44.9179 122.834 44.07H122.833Z" fill="white"/>
</svg>
