<svg width="141" height="36" viewBox="0 0 141 36" fill="none" xmlns="http://www.w3.org/2000/svg">
<g id="Group 6">
<path id="Vector" fill-rule="evenodd" clip-rule="evenodd" d="M45.2974 28.0087L47.0446 23.9487C48.9318 25.3599 51.4462 26.0935 53.927 26.0935C55.7582 26.0935 56.9174 25.3879 56.9174 24.3183C56.8894 21.3279 45.947 23.6687 45.863 16.1703C45.835 12.3623 49.2174 9.4279 54.011 9.4279C56.8614 9.4279 59.7062 10.1335 61.739 11.7407L60.1038 15.8847C58.2446 14.6975 55.9318 13.8519 53.731 13.8519C52.2358 13.8519 51.2502 14.5575 51.2502 15.4591C51.2782 18.3935 62.3046 16.7863 62.4166 23.9487C62.4166 27.8407 59.1182 30.5791 54.3806 30.5791C50.9086 30.5735 47.7222 29.7559 45.2974 28.0087ZM112.391 22.4815C111.517 24.0047 109.882 25.0463 107.989 25.0463C105.195 25.0463 102.944 22.7895 102.944 20.0007C102.944 17.2119 105.201 14.9551 107.989 14.9551C109.877 14.9551 111.517 15.9967 112.391 17.5199L117.213 14.8431C115.409 11.6287 111.937 9.4279 107.989 9.4279C102.149 9.4279 97.411 14.1655 97.411 20.0063C97.411 25.8471 102.149 30.5847 107.989 30.5847C111.965 30.5847 115.409 28.4119 117.213 25.1695L112.391 22.4815ZM64.8414 0.65271H70.8782V30.1815H64.8414V0.65271ZM119.581 0.65271V30.1815H125.618V21.3223L132.781 30.1815H140.509L131.397 19.6591L139.831 9.8423H132.439L125.613 17.9903V0.65271L119.581 0.65271Z" fill="white"/>
<path id="Vector_2" d="M88.8148 22.5374C87.9412 23.9766 86.138 25.0462 84.1052 25.0462C81.3108 25.0462 79.0596 22.7894 79.0596 20.0006C79.0596 17.2118 81.3164 14.955 84.1052 14.955C86.138 14.955 87.9412 16.0806 88.8148 17.5478V22.5374ZM88.8148 9.84784V12.2446C87.8292 10.5814 85.3764 9.42224 82.806 9.42224C77.5028 9.42224 73.3308 14.1038 73.3308 19.9726C73.3308 25.8414 77.5028 30.579 82.806 30.579C85.3708 30.579 87.8236 29.4254 88.8148 27.7566V30.1534H94.8516V9.84784H88.8148Z" fill="white"/>
<g id="Group">
<path id="Vector_3" fill-rule="evenodd" clip-rule="evenodd" d="M7.98462 22.5095C7.98462 24.5703 6.32142 26.2335 4.26062 26.2335C2.19982 26.2335 0.536621 24.5647 0.536621 22.5095C0.536621 20.4543 2.19982 18.7855 4.26062 18.7855H7.98462V22.5095ZM9.84382 22.5095C9.84382 20.4487 11.507 18.7855 13.5678 18.7855C15.6286 18.7855 17.2918 20.4487 17.2918 22.5095V31.8168C17.2918 33.8776 15.6286 35.5408 13.5678 35.5408C11.507 35.5408 9.84382 33.8776 9.84382 31.8168V22.5095Z" fill="white"/>
<path id="Vector_4" fill-rule="evenodd" clip-rule="evenodd" d="M13.5677 7.56313C11.5069 7.56313 9.84375 5.89993 9.84375 3.83912C9.84375 1.77832 11.5069 0.115112 13.5677 0.115112C15.6285 0.115112 17.2917 1.77832 17.2917 3.83912V7.56313H13.5677ZM13.5677 9.45034C15.6285 9.45034 17.2917 11.1135 17.2917 13.1743C17.2917 15.2352 15.6285 16.8984 13.5677 16.8984H4.23255C2.17175 16.8984 0.508545 15.2296 0.508545 13.1743C0.508545 11.1191 2.17175 9.45034 4.23255 9.45034H13.5677Z" fill="white"/>
<path id="Vector_5" fill-rule="evenodd" clip-rule="evenodd" d="M28.4861 13.1743C28.4861 11.1135 30.1493 9.45034 32.2101 9.45034C34.2709 9.45034 35.9341 11.1135 35.9341 13.1743C35.9341 15.2352 34.2709 16.8984 32.2101 16.8984H28.4861V13.1743ZM26.6269 13.1743C26.6269 15.2352 24.9637 16.8984 22.9029 16.8984C20.8422 16.8984 19.179 15.2352 19.179 13.1743V3.83912C19.179 1.77832 20.8422 0.115112 22.9029 0.115112C24.9637 0.115112 26.6269 1.77832 26.6269 3.83912V13.1743Z" fill="white"/>
<path id="Vector_6" fill-rule="evenodd" clip-rule="evenodd" d="M22.9029 28.0927C24.9637 28.0927 26.6269 29.7559 26.6269 31.8168C26.6269 33.8776 24.9637 35.5408 22.9029 35.5408C20.8422 35.5408 19.179 33.8776 19.179 31.8168V28.0927H22.9029ZM22.9029 26.2335C20.8422 26.2335 19.179 24.5703 19.179 22.5095C19.179 20.4487 20.8422 18.7855 22.9029 18.7855H32.2381C34.2989 18.7855 35.9621 20.4487 35.9621 22.5095C35.9621 24.5703 34.2989 26.2335 32.2381 26.2335H22.9029Z" fill="white"/>
</g>
</g>
</svg>
