<svg width="103" height="71" viewBox="0 0 103 71" fill="none" xmlns="http://www.w3.org/2000/svg">
<path d="M28.5124 20.0165L0.508789 48.0201H14.5106L18.0065 44.5242H42.5142L35.5042 37.5323H25.0164L35.5223 27.0264L28.5124 20.0165Z" fill="white"/>
<path d="M28.5124 20.0165L21.5205 27.0084L42.5142 48.002H56.516L28.5124 20.0165Z" fill="white"/>
<path d="M77.51 13.0244L63.5082 27.0262L56.5163 20.0343H42.5145L56.5163 34.0361L31.9365 58.5978H45.9383L63.5082 41.028L70.5001 48.0199H84.5019L70.5001 34.0181L91.5118 13.0244H77.51Z" fill="white"/>
<path d="M98.5212 20.0165L70.5176 48.0201H84.5194L98.5212 34.0183L112.523 48.0201L140.509 20.0165H126.507L112.505 34.0183L98.5212 20.0165Z" fill="white"/>
<path d="M88.0156 48.02H109.009L98.5215 37.5321L88.0156 48.02Z" fill="white"/>
<path d="M102.017 48.02H109.009L98.5215 37.5321L102.017 48.02Z" fill="white"/>
</svg>
