<svg width="508" height="1315" viewBox="0 0 508 1315" fill="none" xmlns="http://www.w3.org/2000/svg">
    <path d="M510 636.666C510 1019.61 510 1315 510 1315C510 739.704 -206.075 1014.75 64.9789 597.561C336.033 180.368 0 -14 0 -14L510 -14C510 -14 510 253.724 510 636.666Z" fill="url(#paint0_linear_702_26761)"/>
    <path d="M510 636.666C510 1019.61 510 1315 510 1315C510 739.704 -206.075 1014.75 64.9789 597.561C336.033 180.368 0 -14 0 -14L510 -14C510 -14 510 253.724 510 636.666Z" fill="url(#paint1_linear_702_26761)"/>
    <defs>
    <linearGradient id="paint0_linear_702_26761" x1="539.077" y1="935.517" x2="377.209" y2="233.405" gradientUnits="userSpaceOnUse">
    <stop stop-color="#017BFF"/>
    <stop offset="1" stop-color="#05C8DD"/>
    </linearGradient>
    <linearGradient id="paint1_linear_702_26761" x1="108.347" y1="598.993" x2="355.839" y2="493.66" gradientUnits="userSpaceOnUse">
    <stop stop-opacity="0.36"/>
    <stop offset="1" stop-opacity="0"/>
    </linearGradient>
    </defs>
</svg>
